<?xml version="1.0" encoding="UTF-8" standalone="no"?>
<svg
   xmlns:dc="http://purl.org/dc/elements/1.1/"
   xmlns:cc="http://creativecommons.org/ns#"
   xmlns:rdf="http://www.w3.org/1999/02/22-rdf-syntax-ns#"
   xmlns:svg="http://www.w3.org/2000/svg"
   xmlns="http://www.w3.org/2000/svg"
   xmlns:sodipodi="http://sodipodi.sourceforge.net/DTD/sodipodi-0.dtd"
   xmlns:inkscape="http://www.inkscape.org/namespaces/inkscape"
   width="210mm"
   height="297mm"
   viewBox="0 0 210 297"
   version="1.1"
   id="svg8"
   inkscape:version="1.0.2-2 (e86c870879, 2021-01-15)"
   sodipodi:docname="Bombs logo.svg">
  <defs
     id="defs2" />
  <sodipodi:namedview
     id="base"
     pagecolor="#ffffff"
     bordercolor="#666666"
     borderopacity="1.0"
     inkscape:pageopacity="0.0"
     inkscape:pageshadow="2"
     inkscape:zoom="0.1767767"
     inkscape:cx="2175.3882"
     inkscape:cy="1437.4716"
     inkscape:document-units="mm"
     inkscape:current-layer="layer1"
     inkscape:document-rotation="0"
     showgrid="false"
     inkscape:window-width="1920"
     inkscape:window-height="974"
     inkscape:window-x="-11"
     inkscape:window-y="-11"
     inkscape:window-maximized="1" />
  <metadata
     id="metadata5">
    <rdf:RDF>
      <cc:Work
         rdf:about="">
        <dc:format>image/svg+xml</dc:format>
        <dc:type
           rdf:resource="http://purl.org/dc/dcmitype/StillImage" />
        <dc:title></dc:title>
      </cc:Work>
    </rdf:RDF>
  </metadata>
  <g
     inkscape:label="Layer 1"
     inkscape:groupmode="layer"
     id="layer1">
    <path
       style="fill:#b7babb;stroke-width:0.264583"
       d="m 51.494214,97.582889 c -2.1862,-0.47391 -5.54193,-2.1123 -7.433676,-3.62939 -6.341031,-5.08525 -8.145541,-14.27138 -4.273341,-21.75409 1.23542,-2.38731 4.789701,-6.01442 7.202307,-7.34984 2.45782,-1.36046 5.90198,-2.29279 8.84317,-2.39384 2.35473,-0.0809 2.46959,-0.1148 4.06852,-1.20061 l 1.64539,-1.11735 1.71559,0.95941 1.71561,0.95942 1.39075,-0.45454 c 1.76993,-0.57847 2.74019,-1.07083 3.38921,-1.71984 0.68895,-0.68896 0.66408,-0.81589 -0.41272,-2.10472 -0.51031,-0.61079 -0.99762,-1.42573 -1.08294,-1.81098 -0.33412,-1.50885 -0.4131,-1.64862 -0.85487,-1.51282 -0.24292,0.0747 -1.6323,-0.0767 -3.08751,-0.33641 -2.79643,-0.49907 -2.77055,-0.8246 0.0662,-0.83197 0.76399,-0.002 1.38906,-0.0956 1.38906,-0.20792 0,-0.11236 -0.36586,-0.64814 -0.81301,-1.19062 -0.92363,-1.12053 -0.91779,-1.12974 0.37534,-0.58945 0.52242,0.21828 1.00031,0.39687 1.06201,0.39687 0.0617,0 -0.10091,-0.68461 -0.36131,-1.52135 -0.26041,-0.83675 -0.41791,-1.57918 -0.35,-1.64986 0.0679,-0.0707 0.6349,0.46099 1.25995,1.18148 1.30339,1.50242 1.17732,1.63847 1.88947,-2.03914 0.24593,-1.26999 0.53618,-2.25407 0.64497,-2.18683 0.1088,0.0672 0.28112,1.23374 0.38299,2.59223 0.10184,1.35849 0.26633,2.60131 0.36555,2.76182 0.11546,0.18685 0.74313,-0.12916 1.74477,-0.87847 0.86042,-0.64366 1.61689,-1.17029 1.68103,-1.17029 0.13943,0 -0.56587,1.12962 -1.43447,2.29745 -0.34457,0.46323 -0.62645,0.95526 -0.62645,1.09339 0,0.13813 0.89217,0.33476 1.9826,0.43694 1.09045,0.10218 2.04137,0.28084 2.11317,0.39701 0.0718,0.11618 -0.58613,0.47925 -1.46206,0.80683 -0.87593,0.32757 -1.52085,0.66892 -1.43311,0.75854 0.0877,0.0896 0.89527,0.42553 1.79453,0.74646 l 1.63507,0.58349 -2.11666,-0.15316 c -1.75014,-0.12663 -2.05939,-0.0925 -1.78594,0.19703 0.66932,0.70869 0.3012,0.76152 -0.73745,0.10585 -1.54892,-0.97781 -2.23681,-0.30841 -0.93747,0.91226 1.11469,1.0472 1.34184,1.9594 0.77618,3.11729 -0.39703,0.81274 -0.85251,1.17995 -2.39371,1.92978 -1.04685,0.50933 -1.90812,0.98558 -1.91394,1.05834 -0.006,0.0728 0.81695,0.54424 1.82835,1.04774 2.02107,1.00615 1.98303,0.90201 1.17705,3.2222 -0.32337,0.93099 -0.29948,1.00912 0.72726,2.37557 1.29458,1.72294 1.80803,2.72493 2.6279,5.12845 0.53972,1.58222 0.62894,2.33397 0.61243,5.15937 -0.0167,2.85229 -0.11795,3.6063 -0.73615,5.48071 -1.92757,5.84453 -7.53364,10.8637 -13.53201,12.11532 -2.30209,0.48034 -6.06677,0.47232 -8.32758,-0.0178 z m 19.05535,-12.74962 c 0.6767,-1.77711 0.92535,-4.32654 0.66191,-6.78656 -0.18143,-1.69412 -0.20924,-1.74626 -0.93184,-1.74626 -0.72525,0 -0.73877,0.0261 -0.5144,0.99219 0.38835,1.67236 0.26961,4.37542 -0.28798,6.55553 -0.41785,1.63385 -0.46013,2.12108 -0.19843,2.28723 0.57332,0.36397 0.67659,0.25814 1.27074,-1.30213 z M 41.631168,38.352129 c -3.001071,-1.07098 -4.916231,-4.08772 -4.626141,-7.28701 0.54957,-6.06061 7.910747,-9.01809 12.465997,-5.00841 1.83097,1.6117 2.3997,2.85554 2.4071,5.26458 0.005,1.71178 -0.10178,2.17914 -0.77919,3.40222 -0.9569,1.72769 -2.4438,3.04584 -4.05511,3.59487 -1.46527,0.49927 -4.062806,0.51546 -5.412656,0.0337 z m 3.898126,-4.98032 c 0.0972,-1.34607 0.13806,-3.3391 0.0908,-4.42897 -0.0927,-2.13903 -0.2798,-2.36057 -1.694256,-2.00557 l -0.64053,0.16076 v 4.36059 4.36058 h 1.03365 1.033646 z m -25.464827,-3.42597 0.0698,-8.54643 5.50585,-0.0716 c 4.97982,-0.0647 5.61742,-0.0222 6.67366,0.44502 1.49064,0.65938 2.23798,1.8406 2.2393,3.53939 0,1.10654 -0.12888,1.40623 -1.02425,2.36612 l -1.02524,1.0991 0.8268,0.43938 c 1.38779,0.73751 2.3513,2.36416 2.37508,4.00974 0.0262,1.81306 -0.67405,3.18916 -2.17746,4.27892 l -1.14121,0.82723 -6.19609,0.0798 -6.19609,0.0798 z m 8.93337,3.09524 v -2.24896 h -0.92604 -0.92604 v 2.24896 2.24896 h 0.92604 0.92604 z m 0.21098,-6.79121 c 0.0691,-1.31576 0.0124,-1.52061 -0.46302,-1.67147 -0.29795,-0.0946 -0.77983,-0.0964 -1.07088,-0.004 -0.4409,0.13994 -0.52916,0.40032 -0.52916,1.56123 0,1.63529 0.11292,1.79709 1.18112,1.69245 0.78013,-0.0764 0.80553,-0.12186 0.88194,-1.57822 z m 24.222517,11.80827 c -0.0859,-0.22379 -0.069,-3.42983 0.0376,-7.12452 l 0.19375,-6.71763 2.1073,-0.0854 c 2.43412,-0.0986 2.21152,-0.25645 4.07485,2.88917 l 1.2918,2.1808 0.79777,-1.35985 c 0.43879,-0.74791 1.15496,-1.90786 1.59153,-2.57767 l 0.79374,-1.21782 h 2.73717 2.7372 l -0.0372,7.00326 c -0.0273,5.1357 -0.12222,7.05856 -0.35595,7.21065 -0.17528,0.11406 -1.56887,0.17728 -3.09684,0.14049 l -2.77812,-0.0669 -0.14666,-2.77813 c -0.0807,-1.52797 -0.16995,-2.56977 -0.19844,-2.3151 -0.0285,0.25466 -0.14208,0.46302 -0.25247,0.46302 -0.11035,0 -0.6759,0.89638 -1.25677,1.99195 -1.02192,1.92756 -1.08513,1.98958 -1.95492,1.91823 -0.8187,-0.0671 -0.99568,-0.24774 -1.98438,-2.0248 -0.97763,-1.75713 -1.09212,-1.87549 -1.15181,-1.19062 -0.0365,0.41824 -0.13523,1.50459 -0.2195,2.41409 l -0.15322,1.65365 h -1.31016 c -0.93485,0 -1.35488,-0.11656 -1.4663,-0.4069 z m 17.8493,0.20846 c -0.045,-0.10914 -0.0222,-3.35359 0.0505,-7.2099 l 0.13229,-7.01145 4.8948,-0.0684 c 4.47124,-0.0625 4.96808,-0.0234 5.74185,0.45131 1.79496,1.10131 2.08135,3.13461 0.67665,4.80401 l -0.70419,0.83689 0.73726,0.58789 c 3.0585,2.43875 1.90778,6.80903 -1.99117,7.56226 -1.43783,0.27778 -9.42674,0.31746 -9.53802,0.0474 z m 7.72345,-4.56406 v -1.85209 h -0.75605 c -0.73067,0 -0.76173,0.0542 -0.92485,1.61473 -0.0928,0.8881 -0.10274,1.72154 -0.022,1.85208 0.0807,0.13055 0.49686,0.23736 0.92483,0.23736 h 0.77814 v -1.85208 z m 0.0551,-5.54353 c 0.21693,-1.2769 -0.0265,-1.65768 -0.98115,-1.53559 -0.40836,0.0522 -0.5483,0.30054 -0.61294,1.08767 -0.11281,1.37349 0.0935,1.81248 0.80384,1.71053 0.47177,-0.0677 0.63029,-0.32099 0.79025,-1.26261 z m 7.40595,8.84374 c -0.32004,-0.65873 -0.58189,-1.25405 -0.58189,-1.32292 0,-0.0689 0.8264,-0.12521 1.83647,-0.12521 1.01005,0 1.8942,-0.0934 1.96477,-0.20762 0.0706,-0.11418 -0.71649,-1.51177 -1.74906,-3.10575 -2.20514,-3.40408 -2.52653,-4.72021 -1.54172,-6.31366 1.04687,-1.69386 1.84764,-1.98086 5.66417,-2.03006 1.85878,-0.024 3.46027,0.0371 3.55891,0.13578 0.2807,0.28068 0.80328,2.21921 0.6418,2.38069 -0.0796,0.0796 -0.93853,0.14479 -1.90868,0.14479 -0.97014,0 -1.8338,0.0699 -1.91926,0.15537 -0.0855,0.0855 0.75102,1.53378 1.85886,3.2185 1.80985,2.75228 2.01425,3.19304 2.01425,4.34358 0,1.44433 -0.54277,2.37036 -1.95115,3.3289 -0.78861,0.53672 -1.19118,0.59531 -4.09014,0.59531 h -3.21545 z"
       id="path300" />
  </g>
</svg>
