<?xml version="1.0" encoding="UTF-8" standalone="no"?>
<svg
   xmlns:dc="http://purl.org/dc/elements/1.1/"
   xmlns:cc="http://creativecommons.org/ns#"
   xmlns:rdf="http://www.w3.org/1999/02/22-rdf-syntax-ns#"
   xmlns:svg="http://www.w3.org/2000/svg"
   xmlns="http://www.w3.org/2000/svg"
   xmlns:sodipodi="http://sodipodi.sourceforge.net/DTD/sodipodi-0.dtd"
   xmlns:inkscape="http://www.inkscape.org/namespaces/inkscape"
   width="306mm"
   height="203mm"
   viewBox="0 0 306 203"
   version="1.1"
   preserveAspectRatio="xMidYMid meet"
   id="svg9"
   sodipodi:docname="box(8).svg"
   inkscape:version="1.0.2-2 (e86c870879, 2021-01-15)">
  <metadata
     id="metadata15">
    <rdf:RDF>
      <cc:Work
         rdf:about="">
        <dc:format>image/svg+xml</dc:format>
        <dc:type
           rdf:resource="http://purl.org/dc/dcmitype/StillImage" />
      </cc:Work>
    </rdf:RDF>
  </metadata>
  <defs
     id="defs13" />
  <sodipodi:namedview
     pagecolor="#ffffff"
     bordercolor="#666666"
     borderopacity="1"
     objecttolerance="10"
     gridtolerance="10"
     guidetolerance="10"
     inkscape:pageopacity="0"
     inkscape:pageshadow="2"
     inkscape:window-width="1920"
     inkscape:window-height="974"
     id="namedview11"
     showgrid="false"
     inkscape:zoom="0.74282496"
     inkscape:cx="694.15508"
     inkscape:cy="356.05935"
     inkscape:window-x="-11"
     inkscape:window-y="-11"
     inkscape:window-maximized="1"
     inkscape:current-layer="svg9" />
  <path
     d="m 0,143 v 9 h 4 v 14 H 0 v 14 h 4 v 14 H 0 v 9 h 15 v -4 h 14 v 4 h 14 v -4 h 14 v 4 h 14 v -4 h 14 v 4 h 15 v -9 h -4 v -14 h 4 v -14 h -4 v -14 h 4 v -9 H 85 v 4 H 71 v -4 H 57 v 4 H 43 v -4 H 29 v 4 H 15 v -4 z"
     id="front_outsideCutPath"
     stroke="#FF0000"
     stroke-width="0.1"
     style="font-size:12px;fill:none;fill-rule:evenodd;stroke:#ff0000;stroke-width:1.07712;stroke-linecap:round;stroke-miterlimit:4;stroke-dasharray:none"
     vector-effect="non-scaling-stroke" />
  <path
     d="m 107,143 v 9 h -4 v 14 h 4 v 14 h -4 v 14 h 4 v 9 h 11 v -4 h 14 v 4 h 14 v -4 h 14 v 4 h 14 v -4 h 14 v 4 h 11 v -9 h 4 v -14 h -4 v -14 h 4 v -14 h -4 v -9 h -11 v 4 h -14 v -4 h -14 v 4 h -14 v -4 h -14 v 4 h -14 v -4 z"
     id="left_outsideCutPath"
     stroke="#FF0000"
     stroke-width="0.1"
     style="font-size:12px;fill:none;fill-rule:evenodd;stroke:#ff0000;stroke-width:1.07712;stroke-linecap:round;stroke-miterlimit:4;stroke-dasharray:none"
     vector-effect="non-scaling-stroke" />
  <path
     d="m 210,107 v 11 h -4 v 14 h 4 v 14 h -4 v 14 h 4 v 14 h -4 v 14 h 4 v 11 h 11 v 4 h 14 v -4 h 14 v 4 h 14 v -4 h 14 v 4 h 14 v -4 h 11 v -11 h 4 v -14 h -4 v -14 h 4 v -14 h -4 v -14 h 4 v -14 h -4 v -11 h -11 v -4 h -14 v 4 h -14 v -4 h -14 v 4 h -14 v -4 h -14 v 4 z"
     id="top_outsideCutPath"
     stroke="#FF0000"
     stroke-width="0.1"
     style="font-size:12px;fill:none;fill-rule:evenodd;stroke:#ff0000;stroke-width:1.07712;stroke-linecap:round;stroke-miterlimit:4;stroke-dasharray:none"
     vector-effect="non-scaling-stroke" />
  <path
     d="m 0,80 v 9 h 4 v 14 H 0 v 14 h 4 v 14 H 0 v 9 h 15 v -4 h 14 v 4 h 14 v -4 h 14 v 4 h 14 v -4 h 14 v 4 h 15 v -9 h -4 v -14 h 4 V 103 H 96 V 89 h 4 V 80 H 85 v 4 H 71 V 80 H 57 v 4 H 43 V 80 H 29 v 4 H 15 v -4 z"
     id="back_outsideCutPath"
     stroke="#FF0000"
     stroke-width="0.1"
     style="font-size:12px;fill:none;fill-rule:evenodd;stroke:#ff0000;stroke-width:1.07712;stroke-linecap:round;stroke-miterlimit:4;stroke-dasharray:none"
     vector-effect="non-scaling-stroke" />
  <path
     d="m 107,80 v 9 h -4 v 14 h 4 v 14 h -4 v 14 h 4 v 9 h 11 v -4 h 14 v 4 h 14 v -4 h 14 v 4 h 14 v -4 h 14 v 4 h 11 v -9 h 4 v -14 h -4 v -14 h 4 V 89 h -4 v -9 h -11 v 4 h -14 v -4 h -14 v 4 h -14 v -4 h -14 v 4 h -14 v -4 z"
     id="right_outsideCutPath"
     stroke="#FF0000"
     stroke-width="0.1"
     style="font-size:12px;fill:none;fill-rule:evenodd;stroke:#ff0000;stroke-width:1.07712;stroke-linecap:round;stroke-miterlimit:4;stroke-dasharray:none"
     vector-effect="non-scaling-stroke" />
  <path
     d="m 210,4 v 11 h -4 v 14 h 4 v 14 h -4 v 14 h 4 v 14 h -4 v 14 h 4 v 11 h 11 v 4 h 14 v -4 h 14 v 4 h 14 v -4 h 14 v 4 h 14 v -4 h 11 V 85 h 4 V 71 h -4 V 57 h 4 V 43 h -4 V 29 h 4 V 15 h -4 V 4 H 291 V 0 H 277 V 4 H 263 V 0 H 249 V 4 H 235 V 0 h -14 v 4 z"
     id="bottom_outsideCutPath"
     stroke="#FF0000"
     stroke-width="0.1"
     style="font-size:12px;fill:none;fill-rule:evenodd;stroke:#ff0000;stroke-width:1.07712;stroke-linecap:round;stroke-miterlimit:4;stroke-dasharray:none"
     vector-effect="non-scaling-stroke" />
  <g
     id="g901"
     transform="translate(-1.0773845,7.9375005)">
    <rect
       style="fill:none;stroke:#ff00ff;stroke-width:0.362744;stroke-miterlimit:4;stroke-dasharray:none"
       id="rect840"
       width="31.937258"
       height="9.7372561"
       x="240.31099"
       y="46.846153" />
    <circle
       style="fill:none;stroke:#ff00ff;stroke-width:0.15875;stroke-miterlimit:4;stroke-dasharray:none"
       id="path856"
       cx="285.58408"
       cy="51.714783"
       r="3.2706251" />
    <circle
       style="fill:none;stroke:#ff00ff;stroke-width:0.15875;stroke-miterlimit:4;stroke-dasharray:none"
       id="path856-4"
       cx="226.97517"
       cy="51.714783"
       r="3.2706251" />
  </g>
  <rect
     style="fill:none;stroke:#ff00ff;stroke-width:0.362744;stroke-miterlimit:4;stroke-dasharray:none"
     id="rect840-1"
     width="13.937257"
     height="10.437257"
     x="248.23361"
     y="76.612305" />
  <circle
     style="fill:none;stroke:#ff00ff;stroke-width:0.362743;stroke-miterlimit:4;stroke-dasharray:none"
     id="path905-5"
     cx="292.47247"
     cy="12.688909"
     r="5.0686288" />
  <circle
     style="fill:none;stroke:#ff00ff;stroke-width:0.362744;stroke-miterlimit:4;stroke-dasharray:none"
     id="path905"
     cx="285.90451"
     cy="31.18512"
     r="1.8186281" />
  <circle
     style="fill:none;stroke:#ff00ff;stroke-width:0.362744;stroke-miterlimit:4;stroke-dasharray:none"
     id="path905-2"
     cx="223.44971"
     cy="31.18512"
     r="1.8186281" />
  <circle
     style="fill:none;stroke:#ff00ff;stroke-width:0.362744;stroke-miterlimit:4;stroke-dasharray:none"
     id="path993"
     cx="218.7012"
     cy="11.045168"
     r="2.3186281" />
</svg>
