<?xml version="1.0" encoding="UTF-8" standalone="no"?>
<svg
   xmlns:dc="http://purl.org/dc/elements/1.1/"
   xmlns:cc="http://creativecommons.org/ns#"
   xmlns:rdf="http://www.w3.org/1999/02/22-rdf-syntax-ns#"
   xmlns:svg="http://www.w3.org/2000/svg"
   xmlns="http://www.w3.org/2000/svg"
   xmlns:sodipodi="http://sodipodi.sourceforge.net/DTD/sodipodi-0.dtd"
   xmlns:inkscape="http://www.inkscape.org/namespaces/inkscape"
   width="306mm"
   height="203mm"
   viewBox="0 0 306 203"
   version="1.1"
   preserveAspectRatio="xMidYMid meet"
   id="svg9"
   sodipodi:docname="KTANE_Morse_Box.svg"
   inkscape:version="1.0.2-2 (e86c870879, 2021-01-15)">
  <metadata
     id="metadata15">
    <rdf:RDF>
      <cc:Work
         rdf:about="">
        <dc:format>image/svg+xml</dc:format>
        <dc:type
           rdf:resource="http://purl.org/dc/dcmitype/StillImage" />
      </cc:Work>
    </rdf:RDF>
  </metadata>
  <defs
     id="defs13" />
  <sodipodi:namedview
     pagecolor="#ffffff"
     bordercolor="#666666"
     borderopacity="1"
     objecttolerance="10"
     gridtolerance="10"
     guidetolerance="10"
     inkscape:pageopacity="0"
     inkscape:pageshadow="2"
     inkscape:window-width="1920"
     inkscape:window-height="974"
     id="namedview11"
     showgrid="false"
     inkscape:zoom="0.37141248"
     inkscape:cx="1054.6227"
     inkscape:cy="42.432995"
     inkscape:window-x="-11"
     inkscape:window-y="-11"
     inkscape:window-maximized="1"
     inkscape:current-layer="svg9"
     inkscape:document-rotation="0" />
  <path
     d="m 0,143 v 9 h 4 v 14 H 0 v 14 h 4 v 14 H 0 v 9 h 15 v -4 h 14 v 4 h 14 v -4 h 14 v 4 h 14 v -4 h 14 v 4 h 15 v -9 h -4 v -14 h 4 v -14 h -4 v -14 h 4 v -9 H 85 v 4 H 71 v -4 H 57 v 4 H 43 v -4 H 29 v 4 H 15 v -4 z"
     id="front_outsideCutPath"
     stroke="#FF0000"
     stroke-width="0.1"
     style="font-size:12px;fill:none;fill-rule:evenodd;stroke:#ff0000;stroke-width:1.07712;stroke-linecap:round;stroke-miterlimit:4;stroke-dasharray:none"
     vector-effect="non-scaling-stroke" />
  <path
     d="m 107,143 v 9 h -4 v 14 h 4 v 14 h -4 v 14 h 4 v 9 h 11 v -4 h 14 v 4 h 14 v -4 h 14 v 4 h 14 v -4 h 14 v 4 h 11 v -9 h 4 v -14 h -4 v -14 h 4 v -14 h -4 v -9 h -11 v 4 h -14 v -4 h -14 v 4 h -14 v -4 h -14 v 4 h -14 v -4 z"
     id="left_outsideCutPath"
     stroke="#FF0000"
     stroke-width="0.1"
     style="font-size:12px;fill:none;fill-rule:evenodd;stroke:#ff0000;stroke-width:1.07712;stroke-linecap:round;stroke-miterlimit:4;stroke-dasharray:none"
     vector-effect="non-scaling-stroke" />
  <path
     d="m 210,107 v 11 h -4 v 14 h 4 v 14 h -4 v 14 h 4 v 14 h -4 v 14 h 4 v 11 h 11 v 4 h 14 v -4 h 14 v 4 h 14 v -4 h 14 v 4 h 14 v -4 h 11 v -11 h 4 v -14 h -4 v -14 h 4 v -14 h -4 v -14 h 4 v -14 h -4 v -11 h -11 v -4 h -14 v 4 h -14 v -4 h -14 v 4 h -14 v -4 h -14 v 4 z"
     id="top_outsideCutPath"
     stroke="#FF0000"
     stroke-width="0.1"
     style="font-size:12px;fill:none;fill-rule:evenodd;stroke:#ff0000;stroke-width:1.07712;stroke-linecap:round;stroke-miterlimit:4;stroke-dasharray:none"
     vector-effect="non-scaling-stroke" />
  <path
     d="m -0.75558315,79.748139 v 9 H 3.2444169 v 14.000001 h -4.00000005 v 14 H 3.2444169 v 14 h -4.00000005 v 9 H 14.244417 v -4 h 14 v 4 h 14 v -4 h 14 v 4 h 14 v -4 h 14 v 4 h 15 v -9 h -4 v -14 h 4 v -14 h -4 V 88.748139 h 4 v -9 h -15 v 4 h -14 v -4 h -14 v 4 h -14 v -4 h -14 v 4 h -14 v -4 z"
     id="back_outsideCutPath"
     stroke="#FF0000"
     stroke-width="0.1"
     style="font-size:12px;fill:none;fill-rule:evenodd;stroke:#ff0000;stroke-width:1.07712;stroke-linecap:round;stroke-miterlimit:4;stroke-dasharray:none"
     vector-effect="non-scaling-stroke" />
  <path
     d="m 107,80 v 9 h -4 v 14 h 4 v 14 h -4 v 14 h 4 v 9 h 11 v -4 h 14 v 4 h 14 v -4 h 14 v 4 h 14 v -4 h 14 v 4 h 11 v -9 h 4 v -14 h -4 v -14 h 4 V 89 h -4 v -9 h -11 v 4 h -14 v -4 h -14 v 4 h -14 v -4 h -14 v 4 h -14 v -4 z"
     id="right_outsideCutPath"
     stroke="#FF0000"
     stroke-width="0.1"
     style="font-size:12px;fill:none;fill-rule:evenodd;stroke:#ff0000;stroke-width:1.07712;stroke-linecap:round;stroke-miterlimit:4;stroke-dasharray:none"
     vector-effect="non-scaling-stroke" />
  <path
     d="m 210,4 v 11 h -4 v 14 h 4 v 14 h -4 v 14 h 4 v 14 h -4 v 14 h 4 v 11 h 11 v 4 h 14 v -4 h 14 v 4 h 14 v -4 h 14 v 4 h 14 v -4 h 11 V 85 h 4 V 71 h -4 V 57 h 4 V 43 h -4 V 29 h 4 V 15 h -4 V 4 H 291 V 0 H 277 V 4 H 263 V 0 H 249 V 4 H 235 V 0 h -14 v 4 z"
     id="bottom_outsideCutPath"
     stroke="#FF0000"
     stroke-width="0.1"
     style="font-size:12px;fill:none;fill-rule:evenodd;stroke:#ff0000;stroke-width:1.07712;stroke-linecap:round;stroke-miterlimit:4;stroke-dasharray:none"
     vector-effect="non-scaling-stroke" />
  <rect
     style="fill:none;stroke:#ff00ff;stroke-width:0.362744;stroke-miterlimit:4;stroke-dasharray:none"
     id="rect840"
     width="31.937258"
     height="9.7372561"
     x="239.23361"
     y="54.783653" />
  <circle
     style="fill:none;stroke:#ff00ff;stroke-width:0.15875;stroke-miterlimit:4;stroke-dasharray:none"
     id="path856"
     cx="284.5567"
     cy="59.702282"
     r="3.3206251" />
  <circle
     style="fill:none;stroke:#ff00ff;stroke-width:0.15875;stroke-miterlimit:4;stroke-dasharray:none"
     id="path856-4"
     cx="225.9478"
     cy="59.702282"
     r="3.3206251" />
  <rect
     style="fill:none;stroke:#ff00ff;stroke-width:0.362744;stroke-miterlimit:4;stroke-dasharray:none"
     id="rect840-1"
     width="14.069664"
     height="10.537256"
     x="248.23361"
     y="76.612305" />
  <circle
     style="fill:none;stroke:#ff00ff;stroke-width:0.362743;stroke-miterlimit:4;stroke-dasharray:none"
     id="path905-5"
     cx="292.47247"
     cy="12.688909"
     r="5.0686288" />
  <g
     id="g849"
     transform="translate(-8.348977,3.0948556)">
    <circle
       style="fill:none;stroke:#ff00ff;stroke-width:0.362744;stroke-miterlimit:4;stroke-dasharray:none"
       id="path905"
       cx="254.67711"
       cy="31.18512"
       r="1.8186281" />
    <circle
       style="fill:none;stroke:#ff00ff;stroke-width:0.362744;stroke-miterlimit:4;stroke-dasharray:none"
       id="path905-2"
       cx="271.67712"
       cy="31.18512"
       r="1.8186281" />
  </g>
  <circle
     style="fill:none;stroke:#ff00ff;stroke-width:0.362744;stroke-miterlimit:4;stroke-dasharray:none"
     id="path993"
     cx="219.51237"
     cy="34.27998"
     r="1.618628" />
  <circle
     style="fill:none;stroke:#ff00ff;stroke-width:0.362744;stroke-miterlimit:4;stroke-dasharray:none"
     id="path993-5"
     cx="290.14389"
     cy="34.27998"
     r="1.618628" />
  <path
     id="path905-5-7"
     style="fill:none;stroke:#ff00ff;stroke-width:0.362744;stroke-miterlimit:4;stroke-dasharray:none"
     d="m 180.66081,185.61607 a 3.8186284,3.8186284 0 0 0 -3.81837,3.81837 3.8186284,3.8186284 0 0 0 0.89917,2.46186 v 7.93233 h 5.8999 v -8.00777 a 3.8186284,3.8186284 0 0 0 0.83819,-2.38642 3.8186284,3.8186284 0 0 0 -3.81889,-3.81837 z" />
  <path
     id="path905-5-7-0"
     style="fill:none;stroke:#ff00ff;stroke-width:0.362744;stroke-miterlimit:4;stroke-dasharray:none"
     d="m 125.20012,185.54197 a 3.8186284,3.8186284 0 0 0 -3.81837,3.81837 3.8186284,3.8186284 0 0 0 0.89917,2.46186 v 7.93233 h 5.8999 v -8.00777 a 3.8186284,3.8186284 0 0 0 0.83819,-2.38642 3.8186284,3.8186284 0 0 0 -3.81889,-3.81837 z" />
</svg>
